<svg width="343" height="48" viewBox="0 0 343 48" fill="none" xmlns="http://www.w3.org/2000/svg">
<path d="M245.042 0.362305C245.897 0.381749 246.745 0.468494 247.583 0.624023L247.941 0.695312L247.946 0.696289C249.883 1.11915 251.685 1.89833 253.352 3.03125L253.36 3.03711L253.368 3.04297C256.654 5.46855 258.994 8.60539 260.384 12.4424L260.385 12.4443C261.673 16.0465 262.318 19.7176 262.318 23.4551V23.8096L262.315 24.1748C262.294 25.9984 262.109 27.8124 261.761 29.6162C261.41 31.5414 260.852 33.4027 260.087 35.1973C258.571 38.9096 256.272 42.0331 253.195 44.5605L253.19 44.5654C251.637 45.8078 249.916 46.74 248.03 47.3613L248.024 47.3633L248.018 47.3652C247.06 47.6546 246.09 47.8434 245.108 47.9326C244.664 47.9769 244.23 48 243.805 48C243.585 48 243.366 47.9931 243.146 47.9805L242.927 47.9658H242.921L242.915 47.9648C242.817 47.955 242.715 47.9483 242.611 47.9434L242.289 47.9355H242.277C241.588 47.9195 240.812 47.9093 239.952 47.9053L239.063 47.9033H239.054C238.153 47.8872 237.264 47.8771 236.388 47.873L235.516 47.8711H227.613V0.362305H245.042ZM89.501 0.491211C90.8294 0.512989 92.1375 0.599363 93.4238 0.751953C95.8879 1.01932 98.2755 1.61393 100.585 2.53516L101.046 2.72461L101.053 2.72656C102.267 3.25657 103.427 3.90875 104.529 4.68066C105.583 5.39797 106.506 6.28174 107.299 7.3291L107.456 7.54199L107.799 8.0127L106.274 8.86035L106.017 8.43457C105.43 7.46306 104.648 6.60822 103.665 5.87109L103.661 5.86719C102.808 5.21373 101.891 4.66404 100.91 4.2168L100.485 4.03125L100.484 4.03027C98.3371 3.12411 96.0977 2.56873 93.7646 2.36426L93.2969 2.32812H93.292L93.2871 2.32715C92.5492 2.2639 91.811 2.23242 91.0732 2.23242C89.3242 2.23244 87.5962 2.41137 85.8896 2.76953C84.7016 3.04114 83.5665 3.42732 82.4844 3.92676C81.4116 4.42191 80.4553 5.03794 79.6143 5.77539L79.6152 5.77637C78.7848 6.52582 78.1752 7.35713 77.7773 8.26953C77.6025 8.71912 77.4857 9.18885 77.4268 9.67969L77.4248 9.69727L77.4219 9.71387C77.3632 10.027 77.333 10.339 77.333 10.6504C77.333 10.7376 77.3361 10.8217 77.3408 10.9023L77.3623 11.1348L77.3643 11.1562C77.3993 11.5771 77.4727 12.0084 77.5859 12.4502L77.6377 12.6406C77.7816 13.1545 77.9558 13.6465 78.1602 14.1172C78.5548 14.9626 79.1246 15.6805 79.876 16.2744C81.5037 17.4665 83.5157 18.3306 85.9258 18.8545L85.9326 18.8564C88.2405 19.3907 90.6245 19.8395 93.084 20.2031L93.1094 20.207L93.1338 20.2129C93.18 20.2244 93.2242 20.2295 93.2666 20.2295H93.3037L93.3408 20.2354C95.745 20.5817 98.1851 21.1187 100.661 21.8457L101.157 21.9941L101.163 21.9951L101.169 21.9971C102.35 22.3845 103.504 22.8989 104.631 23.5381L105.112 23.8193L105.114 23.8213C106.442 24.6315 107.587 25.6883 108.55 26.9863L108.556 26.9941C109.495 28.3139 110.137 29.74 110.476 31.2686C110.658 32.02 110.748 32.8029 110.748 33.6152V33.9697C110.748 34.5963 110.704 35.2228 110.614 35.8486L110.613 35.8545L110.612 35.8594C110.367 37.3557 109.886 38.7754 109.172 40.1152L109.17 40.1182C108.454 41.4376 107.547 42.5919 106.448 43.5781L106.443 43.583L106.438 43.5869C104.203 45.4899 101.704 46.7246 98.9482 47.2803C96.8086 47.7168 94.6776 47.9355 92.5566 47.9355C92.0336 47.9355 91.5207 47.9242 91.0186 47.9023C88.3995 47.8146 85.8235 47.422 83.292 46.7236L83.2842 46.7217C82.1702 46.3952 81.0817 45.9922 80.0186 45.5146L79.5645 45.3057L79.5605 45.3047C78.427 44.7589 77.3656 44.0467 76.376 43.1719L76.1787 42.9951L75.7373 42.5908L77.1084 41.4766L77.4355 41.8584C77.7942 42.2768 78.2151 42.6686 78.7002 43.0332C79.1987 43.3861 79.7067 43.7087 80.2246 43.999C81.3279 44.5814 82.4723 45.0388 83.6572 45.3721C85.7857 45.9198 87.9563 46.1933 90.1699 46.1934H91.0645C93.5715 46.1512 95.9813 45.7411 98.2949 44.9629C100.625 44.1721 102.548 42.9289 104.075 41.2363C104.809 40.3998 105.367 39.4852 105.752 38.4922L105.755 38.4834L105.758 38.4756C106.188 37.4729 106.443 36.4421 106.524 35.3818V35.376L106.525 35.3701C106.545 35.1738 106.555 34.965 106.555 34.7441C106.555 34.4448 106.535 34.1447 106.495 33.8447L106.493 33.8311L106.492 33.8174C106.457 33.3776 106.384 32.9456 106.271 32.5215L106.221 32.3408L106.218 32.3281C105.955 31.3386 105.533 30.4555 104.953 29.6738C104.349 28.9093 103.601 28.2403 102.705 27.6689C101.793 27.1094 100.796 26.6412 99.7109 26.2656C97.4846 25.5023 95.1173 24.9286 92.6084 24.5459L92.5957 24.5439C91.7629 24.3945 90.9076 24.2552 90.0312 24.127H90.0273C88.3428 23.8678 86.6477 23.5543 84.9424 23.1875C83.6015 22.9237 82.263 22.5281 80.9268 22.0029C79.5372 21.5088 78.2212 20.7593 76.9785 19.7607L76.9717 19.7559L76.9658 19.751C75.696 18.6625 74.7635 17.3323 74.1738 15.7676L74.1719 15.7617C73.9044 15.0261 73.7028 14.2883 73.5684 13.5488C73.4339 12.8946 73.3662 12.229 73.3662 11.5537V11.2568C73.3889 9.62336 73.7992 8.09772 74.5947 6.68848L74.6025 6.67383C75.4346 5.30209 76.4761 4.20062 77.7285 3.38086L77.7334 3.37793L77.7373 3.37598C80.2057 1.83321 82.8056 0.933344 85.5322 0.6875C86.6908 0.55634 87.8498 0.491232 89.0088 0.491211H89.501ZM302.5 0.459961V2.1709L274.214 2.04102V23.2334L288.89 23.3633V25.0391L274.214 24.9424V46.1914L302.532 46.0947V47.7715L273.182 47.9062V47.8711H269.86L269.893 0.362305H273.636L302.5 0.459961ZM4.35449 22.0029L29.207 0.488281L29.3516 0.362305H31.9268L5.51562 23.2734L32.1543 47.8711H25.7305L4.35449 28.1494V47.8711H0L0.0332031 0.362305H4.35449V22.0029ZM141.387 0.362305H141.54V0.728516L155.728 34.873L169.665 0.807617V0.362305H174.019V47.8711H169.665V5.30566L156.563 37.2939L156.562 37.2959L155.656 39.4854H152.936L141.54 12.0752V47.8711H139.83V0.362305H140.874L141.236 0L141.387 0.362305ZM314.396 46.1914L342.715 46.0625V47.7725L313.85 47.8711H310.043V0.362305H314.396V46.1914ZM243.596 47.4814L243.805 47.4844C243.686 47.4844 243.568 47.4804 243.449 47.4766C243.498 47.4781 243.547 47.4805 243.596 47.4814ZM242.966 47.4521C243.097 47.4622 243.228 47.4683 243.359 47.4736C243.228 47.4683 243.097 47.4622 242.966 47.4521ZM48.7988 0.296875C51.5112 0.318422 54.0688 0.998744 56.4648 2.33203L56.6963 2.46289L56.6982 2.46387C59.1238 3.87512 61.1967 5.72723 62.9141 8.0166C64.6271 10.2787 65.9113 12.7728 66.7676 15.4951C67.6433 18.2112 68.082 20.994 68.082 23.8418L68.0771 24.376C68.0246 27.0329 67.5781 29.6236 66.7393 32.1465L66.6621 32.4033C66.4777 33.0025 66.2598 33.5932 66.0078 34.1748L66.002 34.1885L65.9961 34.2002C65.9367 34.319 65.8755 34.4495 65.8145 34.5918L65.8135 34.5947C65.5934 35.1008 65.3508 35.5958 65.0869 36.0801C64.4278 37.3324 63.6702 38.5097 62.8125 39.6094C61.0964 41.874 59.036 43.7122 56.6348 45.1221C54.2161 46.5637 51.6042 47.3201 48.8066 47.3867H48.791C45.9703 47.3645 43.3236 46.6419 40.8604 45.2217L40.8594 45.2207C38.4339 43.8095 36.3609 41.9572 34.6436 39.668C33.0375 37.5472 31.8071 35.2226 30.9541 32.6973L30.7891 32.1895C29.9885 29.644 29.5537 27.0399 29.4844 24.3789L29.4746 23.8467V23.8379C29.4966 20.9902 29.9462 18.2071 30.8223 15.4912C31.0212 14.8296 31.2632 14.169 31.5488 13.5098L31.5547 13.4961L31.5615 13.4844C31.6209 13.3657 31.6812 13.235 31.7422 13.0928L31.7432 13.0898C31.9643 12.5813 32.2073 12.0832 32.4727 11.5967C33.1309 10.3469 33.888 9.17283 34.7441 8.0752C36.4603 5.81053 38.5207 3.97143 40.9219 2.56152C43.341 1.11964 45.9641 0.363513 48.7822 0.296875H48.7988ZM89.1143 47.2666C89.7538 47.3257 90.3961 47.3652 91.041 47.3867C90.3961 47.3652 89.7538 47.3257 89.1143 47.2666ZM200.82 0.296875C203.533 0.318415 206.09 0.998749 208.486 2.33203L208.718 2.46289L208.72 2.46387C211.145 3.87511 213.218 5.72723 214.936 8.0166C216.649 10.2787 217.933 12.7728 218.789 15.4951C219.665 18.2112 220.103 20.994 220.104 23.8418L220.099 24.376C220.046 27.0329 219.6 29.6236 218.761 32.1465L218.684 32.4033C218.499 33.0025 218.281 33.5932 218.029 34.1748L218.023 34.1885L218.018 34.2002C217.958 34.319 217.897 34.4495 217.836 34.5918L217.835 34.5947C217.615 35.1008 217.372 35.5958 217.108 36.0801C216.449 37.3324 215.692 38.5097 214.834 39.6094C213.118 41.874 211.057 43.7122 208.656 45.1221C206.238 46.5637 203.626 47.3201 200.828 47.3867H200.812C197.992 47.3645 195.345 46.6419 192.882 45.2217L192.881 45.2207C190.455 43.8095 188.382 41.9572 186.665 39.668C185.059 37.5472 183.829 35.2226 182.976 32.6973L182.811 32.1895C182.01 29.644 181.575 27.0399 181.506 24.3789L181.496 23.8467V23.8379C181.518 20.9902 181.968 18.2071 182.844 15.4912C183.043 14.8296 183.285 14.169 183.57 13.5098L183.576 13.4961L183.583 13.4844C183.642 13.3657 183.703 13.235 183.764 13.0928L183.765 13.0898C183.986 12.5813 184.229 12.0832 184.494 11.5967C185.152 10.3469 185.909 9.17283 186.766 8.0752C188.482 5.81053 190.542 3.97143 192.943 2.56152C195.363 1.11963 197.986 0.363516 200.804 0.296875H200.82ZM245.669 47.3496C245.675 47.3488 245.681 47.3475 245.688 47.3467C245.681 47.3475 245.675 47.3488 245.669 47.3496ZM246.258 47.2568C246.286 47.2518 246.314 47.2464 246.342 47.2412C246.314 47.2464 246.286 47.2518 246.258 47.2568ZM246.88 47.1309C246.91 47.1242 246.939 47.1173 246.969 47.1104C246.939 47.1173 246.91 47.1242 246.88 47.1309ZM231.452 1.26465H231.451H231.452ZM247.868 46.8711H247.869H247.868ZM242.681 46.6562C242.55 46.6615 242.42 46.6684 242.289 46.6777C242.42 46.6684 242.55 46.6615 242.681 46.6562ZM92.5029 46.6455H92.502H92.5029ZM242.966 46.6475C242.921 46.6483 242.875 46.6501 242.83 46.6514C242.95 46.6479 243.07 46.6455 243.19 46.6455L242.966 46.6475ZM234.129 1.74902C233.416 1.74902 232.695 1.75637 231.968 1.77051V46.5117C235.398 46.4825 238.828 46.3663 242.258 46.1621C242.566 46.1403 242.874 46.1291 243.182 46.1289C243.759 46.108 244.325 46.0566 244.881 45.9746C245.7 45.831 246.487 45.5957 247.244 45.2686L247.247 45.2676C248.799 44.6056 250.173 43.6753 251.374 42.4746C253.766 40.018 255.475 37.1549 256.504 33.8799L256.505 33.8779C257.499 30.7462 257.996 27.5413 257.996 24.2617V23.8545C257.953 22.1085 257.837 20.3842 257.646 18.6816C257.46 17.1972 257.184 15.7284 256.82 14.2764L256.659 13.6553L256.658 13.6504C255.801 10.3254 254.152 7.49816 251.709 5.1582C250.457 4.05211 249.033 3.24217 247.433 2.72754C245.951 2.31068 244.404 2.07997 242.791 2.03809C242.609 2.03755 242.428 2.02672 242.246 2.00488C240.884 1.92486 239.528 1.86243 238.178 1.81836L236.825 1.78125C235.926 1.75985 235.028 1.74903 234.129 1.74902ZM249.08 46.416C249.105 46.4057 249.13 46.3962 249.154 46.3857C249.13 46.3962 249.105 46.4057 249.08 46.416ZM249.672 46.1533C249.717 46.1319 249.763 46.1107 249.809 46.0889C249.763 46.1107 249.717 46.1319 249.672 46.1533ZM98.46 45.4521C98.7607 45.3501 99.0548 45.2398 99.3428 45.123C99.0546 45.2399 98.7599 45.35 98.459 45.4521H98.46ZM48.7949 1.65234C46.2141 1.69516 43.8884 2.45797 41.8047 3.94336C39.7851 5.46572 38.1936 7.33894 37.0273 9.56738L37.0244 9.57324V9.57227C36.436 10.665 35.9423 11.8006 35.543 12.9775L35.5371 12.9951C35.3738 13.4238 35.2408 13.8631 35.1387 14.3125L35.1328 14.3379L35.0039 14.7246C34.9788 14.8399 34.9443 14.9535 34.9014 15.0654L34.7529 15.5986L34.5957 16.5117L34.5938 16.5215L34.5918 16.5303C34.0831 18.9466 33.8291 21.3836 33.8291 23.8418L33.832 24.3027C33.861 26.4502 34.0929 28.5818 34.5273 30.6973L34.623 31.1504L34.625 31.1582C35.0791 33.4087 35.8386 35.5675 36.9043 37.6348L37.1211 38.0469L37.124 38.0508C38.2928 40.263 39.8773 42.1299 41.8818 43.6543C43.9206 45.1559 46.2221 45.9369 48.8008 46C51.3569 45.9774 53.6693 45.2258 55.752 43.7412C57.7716 42.2188 59.363 40.3457 60.5293 38.1172L60.5322 38.1113C61.1206 37.0186 61.6144 35.8839 62.0137 34.707L62.0166 34.6982L62.0205 34.6885C62.1843 34.2585 62.3276 33.818 62.4512 33.3672C62.4755 33.2312 62.5095 33.0956 62.5527 32.9619C62.5784 32.8438 62.6129 32.7269 62.6572 32.6123C62.7156 32.437 62.7649 32.2627 62.8037 32.0889L62.9619 31.1729L62.9629 31.1631L62.9648 31.1543C63.4736 28.7379 63.7285 26.3002 63.7285 23.8418L63.7246 23.3818C63.6936 21.0811 63.4301 18.7983 62.9336 16.5342L62.9316 16.5264C62.4473 14.1257 61.616 11.8289 60.4355 9.63672L60.4336 9.63379C59.266 7.42368 57.6825 5.55876 55.6807 4.03516C53.6414 2.53145 51.3508 1.73796 48.7949 1.65234ZM200.816 1.65234C198.238 1.69511 195.915 2.45535 193.833 3.9375C191.81 5.4607 190.217 7.33658 189.05 9.56738L189.046 9.57324V9.57227C188.457 10.665 187.964 11.8006 187.564 12.9775L187.559 12.9951C187.395 13.4238 187.262 13.8631 187.16 14.3125L187.154 14.3379L187.025 14.7246C187 14.8412 186.965 14.9562 186.922 15.0693L186.774 15.5986L186.617 16.5117L186.615 16.5215L186.613 16.5303C186.105 18.9466 185.851 21.3836 185.851 23.8418L185.854 24.3027C185.882 26.4502 186.114 28.5818 186.549 30.6973L186.645 31.1504L186.646 31.1582C187.101 33.4087 187.86 35.5675 188.926 37.6348L189.143 38.0469L189.146 38.0508C190.313 40.2608 191.896 42.1258 193.897 43.6494C195.938 45.1538 198.241 45.9369 200.822 46C203.378 45.9774 205.691 45.2258 207.773 43.7412C209.793 42.2189 211.384 40.3456 212.551 38.1172L212.554 38.1113C213.142 37.0186 213.636 35.8839 214.035 34.707L214.038 34.6982L214.042 34.6885C214.206 34.2585 214.349 33.8181 214.473 33.3672C214.497 33.2312 214.531 33.0956 214.574 32.9619C214.6 32.8438 214.634 32.7269 214.679 32.6123C214.737 32.437 214.786 32.2627 214.825 32.0889L214.983 31.1729L214.984 31.1631L214.986 31.1543C215.495 28.7379 215.75 26.3002 215.75 23.8418L215.746 23.3818C215.717 21.2344 215.485 19.1028 215.051 16.9873L214.955 16.5342L214.953 16.5264C214.469 14.1257 213.637 11.8289 212.457 9.63672L212.455 9.63379C211.287 7.42367 209.704 5.55876 207.702 4.03516C205.663 2.53145 203.372 1.73795 200.816 1.65234ZM250.286 45.8496C250.32 45.832 250.353 45.8138 250.387 45.7959C250.353 45.8138 250.32 45.832 250.286 45.8496ZM207.508 45.1709H207.509H207.508ZM250.878 45.5225C250.908 45.5051 250.938 45.4882 250.968 45.4707C250.938 45.4882 250.908 45.5051 250.878 45.5225ZM251.464 45.166C251.48 45.1559 251.496 45.146 251.512 45.1357C251.496 45.146 251.48 45.1559 251.464 45.166ZM194.402 44.6182C194.677 44.791 194.957 44.9523 195.24 45.1016C194.957 44.9523 194.677 44.791 194.402 44.6182ZM79.7842 44.8389H79.7852H79.7842ZM42.3809 44.6182C42.6195 44.7681 42.8622 44.9078 43.1074 45.04C42.8622 44.9078 42.6195 44.7681 42.3809 44.6182ZM252.023 44.7939C252.046 44.7785 252.067 44.7617 252.089 44.7461C252.067 44.7617 252.046 44.7785 252.023 44.7939ZM78.5098 44.1328C78.2337 43.9588 77.962 43.774 77.6953 43.5771C77.962 43.774 78.2337 43.9588 78.5098 44.1328ZM208.987 44.3154C209.067 44.2652 209.146 44.2153 209.225 44.1641C209.146 44.2153 209.067 44.2652 208.987 44.3154ZM209.492 43.9854C209.549 43.9473 209.605 43.9097 209.661 43.8711C209.605 43.9097 209.549 43.9473 209.492 43.9854ZM253.183 43.8955C253.261 43.8289 253.34 43.7628 253.417 43.6953C253.34 43.7628 253.261 43.8289 253.183 43.8955ZM209.764 43.7979C209.864 43.7275 209.965 43.6571 210.064 43.585C209.965 43.6571 209.864 43.7275 209.764 43.7979ZM210.188 43.4941C210.279 43.4276 210.368 43.36 210.457 43.292C210.368 43.36 210.279 43.4276 210.188 43.4941ZM253.673 43.4658C253.758 43.3896 253.844 43.3155 253.928 43.2383L253.961 43.207C253.866 43.2947 253.769 43.3794 253.673 43.4658ZM102.847 43.0957H102.848H102.847ZM210.585 43.1943C210.666 43.1317 210.745 43.0678 210.825 43.0039C210.745 43.0678 210.666 43.1317 210.585 43.1943ZM254.228 42.9521C254.308 42.8753 254.389 42.7995 254.468 42.7217C254.389 42.7995 254.308 42.8753 254.228 42.9521ZM211.038 42.832C211.086 42.7927 211.133 42.7527 211.181 42.7129C211.133 42.7527 211.086 42.7927 211.038 42.832ZM211.399 42.5273C211.458 42.4766 211.516 42.4245 211.574 42.373C211.516 42.4245 211.458 42.4766 211.399 42.5273ZM254.697 42.4893C254.785 42.4 254.874 42.3112 254.96 42.2207C254.874 42.3112 254.785 42.4 254.697 42.4893ZM211.758 42.2109C211.829 42.1467 211.9 42.0819 211.97 42.0166C211.9 42.0819 211.829 42.1467 211.758 42.2109ZM255.204 41.958C255.276 41.8806 255.348 41.8038 255.418 41.7256C255.348 41.8038 255.276 41.8806 255.204 41.958ZM104.458 41.582H104.459H104.458ZM212.114 41.8809C212.168 41.8295 212.222 41.7775 212.275 41.7256C212.222 41.7775 212.168 41.8295 212.114 41.8809ZM212.472 41.5322C212.518 41.4863 212.564 41.44 212.609 41.3936C212.564 41.44 212.518 41.4863 212.472 41.5322ZM255.665 41.4443C255.746 41.3518 255.826 41.2598 255.905 41.166C255.826 41.2598 255.746 41.3518 255.665 41.4443ZM212.805 41.1934C212.866 41.1291 212.927 41.0642 212.988 40.999C212.927 41.0642 212.866 41.1291 212.805 41.1934ZM256.12 40.9043C256.191 40.8173 256.262 40.7306 256.332 40.6426C256.262 40.7306 256.191 40.8173 256.12 40.9043ZM213.139 40.8379C213.198 40.7733 213.256 40.708 213.314 40.6426C213.256 40.708 213.198 40.7733 213.139 40.8379ZM188.334 37.6074C188.449 37.8365 188.566 38.0651 188.688 38.292H188.689C188.567 38.0651 188.449 37.8365 188.334 37.6074ZM256.552 40.3584C256.623 40.265 256.695 40.1716 256.765 40.0771C256.695 40.1716 256.623 40.265 256.552 40.3584ZM36.4453 37.8711C36.5178 38.0118 36.5917 38.1521 36.667 38.292H36.668C36.5268 38.0299 36.3902 37.766 36.2588 37.501L36.4453 37.8711ZM256.943 39.832C257.017 39.7297 257.09 39.627 257.162 39.5234C257.09 39.627 257.017 39.7297 256.943 39.832ZM257.354 39.2402C257.426 39.1323 257.499 39.0243 257.569 38.915C257.499 39.0243 257.426 39.1323 257.354 39.2402ZM257.721 38.6787C257.795 38.5604 257.869 38.4412 257.941 38.3213C257.869 38.4412 257.795 38.5604 257.721 38.6787ZM63.3076 38.0508H63.3086H63.3076ZM258.081 38.0859C258.156 37.9588 258.23 37.831 258.303 37.7021C258.23 37.831 258.156 37.9588 258.081 38.0859ZM188.254 37.4482C188.261 37.4623 188.268 37.4761 188.275 37.4902C188.212 37.3613 188.148 37.2322 188.087 37.1025L188.254 37.4482ZM258.421 37.4902C258.5 37.3466 258.578 37.2024 258.654 37.0566C258.578 37.2024 258.5 37.3466 258.421 37.4902ZM35.9756 36.9092C36.001 36.9638 36.026 37.0187 36.0518 37.0732C36.026 37.0187 36.001 36.9638 35.9756 36.9092ZM258.756 36.8574C258.825 36.7225 258.892 36.5869 258.959 36.4502C258.892 36.5869 258.825 36.7225 258.756 36.8574ZM259.097 36.1641C259.151 36.0479 259.205 35.9309 259.258 35.8135C259.205 35.9309 259.151 36.0479 259.097 36.1641ZM259.608 35.002C259.535 35.1824 259.457 35.3605 259.38 35.5381C259.409 35.4723 259.44 35.407 259.468 35.3408L259.609 35.002C259.701 34.7882 259.788 34.5731 259.873 34.3574C259.788 34.5731 259.7 34.7881 259.608 35.002ZM64.8926 35.3408C64.9086 35.3091 64.9236 35.2769 64.9395 35.2451C64.9236 35.2769 64.9086 35.3091 64.8926 35.3408ZM216.914 35.3408C216.93 35.3091 216.945 35.2769 216.961 35.2451C216.945 35.2769 216.93 35.3091 216.914 35.3408ZM259.938 34.1875C260.003 34.0193 260.067 33.851 260.129 33.6816C260.067 33.851 260.003 34.0193 259.938 34.1875ZM217.612 33.834C217.661 33.72 217.707 33.6058 217.753 33.4912C217.707 33.6058 217.661 33.72 217.612 33.834ZM106.716 32.1963H106.717H106.716ZM260.175 33.5508C260.236 33.3801 260.295 33.209 260.353 33.0371C260.295 33.209 260.236 33.3801 260.175 33.5508ZM217.812 33.3389C217.85 33.2384 217.889 33.1381 217.926 33.0371C217.889 33.1381 217.85 33.2384 217.812 33.3389ZM217.986 32.8672C218.021 32.7687 218.055 32.6702 218.088 32.5713C218.055 32.6702 218.021 32.7687 217.986 32.8672ZM260.422 32.8213C260.471 32.6703 260.518 32.5191 260.564 32.3672C260.518 32.5191 260.471 32.6703 260.422 32.8213ZM66.4033 31.5059C66.3517 31.6715 66.2982 31.8369 66.2432 32.002H66.2441C66.3474 31.6922 66.444 31.3812 66.5352 31.0693L66.4033 31.5059ZM218.266 32.002C218.23 32.1241 218.192 32.2458 218.153 32.3672C218.165 32.3287 218.179 32.2905 218.19 32.252L218.266 32.002ZM260.623 32.168C260.673 31.9981 260.723 31.8282 260.77 31.6572C260.723 31.8282 260.673 31.9981 260.623 32.168ZM260.83 31.4258C260.867 31.2858 260.902 31.1456 260.937 31.0049C260.902 31.1456 260.867 31.2858 260.83 31.4258ZM260.983 30.8047C261.019 30.6523 261.055 30.4999 261.088 30.3467C261.055 30.4999 261.019 30.6523 260.983 30.8047ZM66.6406 30.6963C66.6556 30.6419 66.6709 30.5876 66.6855 30.5332C66.6709 30.5876 66.6556 30.6419 66.6406 30.6963ZM218.662 30.6963C218.677 30.6419 218.692 30.5876 218.707 30.5332C218.692 30.5876 218.677 30.6419 218.662 30.6963ZM218.765 30.3115C218.791 30.21 218.818 30.1086 218.843 30.0068C218.818 30.1086 218.791 30.21 218.765 30.3115ZM66.752 30.2793C66.7754 30.1885 66.7989 30.0978 66.8213 30.0068C66.7989 30.0978 66.7754 30.1885 66.752 30.2793ZM261.488 28.126C261.421 28.5907 261.343 29.0551 261.254 29.5186C261.224 29.6818 261.191 29.8445 261.158 30.0068C261.167 29.9622 261.178 29.9178 261.187 29.873L261.254 29.5186C261.343 29.0551 261.421 28.5908 261.488 28.126ZM66.874 29.7861C66.8894 29.7214 66.9041 29.6566 66.9189 29.5918C66.9041 29.6566 66.8894 29.7214 66.874 29.7861ZM218.896 29.7861C218.911 29.7214 218.926 29.6566 218.94 29.5918C218.926 29.6566 218.911 29.7214 218.896 29.7861ZM66.9912 29.2686C67.0028 29.2149 67.0142 29.1612 67.0254 29.1074C67.0142 29.1612 67.0028 29.2149 66.9912 29.2686ZM219.013 29.2686C219.024 29.2149 219.036 29.1612 219.047 29.1074C219.036 29.1612 219.024 29.2149 219.013 29.2686ZM219.099 28.8535C219.122 28.7351 219.145 28.6167 219.167 28.498C219.145 28.6167 219.122 28.7351 219.099 28.8535ZM67.0889 28.79C67.1017 28.7243 67.1146 28.6586 67.127 28.5928C67.1146 28.6586 67.1017 28.7243 67.0889 28.79ZM219.18 28.4268C219.202 28.3023 219.223 28.1775 219.243 28.0527C219.223 28.1775 219.202 28.3023 219.18 28.4268ZM67.1777 28.3115C67.1892 28.2461 67.2009 28.1807 67.2119 28.1152C67.2009 28.1807 67.1892 28.2461 67.1777 28.3115ZM261.519 27.9053C261.539 27.7555 261.56 27.6059 261.578 27.4561C261.56 27.6059 261.539 27.7555 261.519 27.9053ZM219.278 27.8389C219.283 27.8112 219.288 27.7836 219.292 27.7559L219.334 27.4678C219.316 27.5917 219.298 27.7153 219.278 27.8389ZM67.2588 27.8252C67.2714 27.7442 67.2831 27.6631 67.2949 27.582C67.2831 27.6631 67.2714 27.7442 67.2588 27.8252ZM103.322 27.46H103.323H103.322ZM219.338 27.4346C219.358 27.2877 219.377 27.1405 219.396 26.9932C219.378 27.1405 219.358 27.2877 219.338 27.4346ZM67.3359 27.293C67.3455 27.2214 67.3543 27.1498 67.3633 27.0781C67.3543 27.1498 67.3455 27.2214 67.3359 27.293ZM261.613 27.1436C261.628 27.0114 261.644 26.8794 261.657 26.7471C261.644 26.8794 261.628 27.0114 261.613 27.1436ZM219.499 25.9902C219.474 26.2946 219.443 26.5979 219.407 26.9004C219.443 26.5979 219.474 26.2946 219.499 25.9902ZM67.3916 26.8477C67.4047 26.7355 67.4171 26.6232 67.4287 26.5107C67.4171 26.6232 67.4047 26.7355 67.3916 26.8477ZM101.1 26.2539H101.101H101.1ZM261.686 26.4307C261.697 26.3018 261.707 26.1729 261.717 26.0439C261.707 26.1729 261.697 26.3018 261.686 26.4307ZM67.4443 26.3564C67.4538 26.2589 67.4624 26.1612 67.4707 26.0635C67.4624 26.1612 67.4538 26.2589 67.4443 26.3564ZM67.4873 25.8701C67.4973 25.7414 67.5056 25.6125 67.5137 25.4834C67.5056 25.6125 67.4973 25.7414 67.4873 25.8701ZM219.509 25.8701C219.519 25.743 219.527 25.6157 219.535 25.4883C219.527 25.6157 219.519 25.743 219.509 25.8701ZM261.735 25.7773C261.745 25.6338 261.753 25.4903 261.761 25.3467C261.753 25.4903 261.745 25.6338 261.735 25.7773ZM67.5605 24.3652C67.5539 24.701 67.5409 25.0356 67.5215 25.3691C67.5409 25.0356 67.5539 24.7009 67.5605 24.3652ZM219.543 25.3691C219.549 25.2592 219.555 25.1492 219.56 25.0391C219.555 25.1492 219.549 25.2592 219.543 25.3691ZM97.2803 24.9883H97.2793H97.2803ZM261.772 25.082C261.779 24.9379 261.784 24.7937 261.788 24.6494C261.784 24.7937 261.779 24.9379 261.772 25.082ZM261.795 24.3623C261.796 24.2979 261.799 24.2334 261.8 24.1689L261.802 23.8096C261.802 23.9938 261.798 24.1783 261.795 24.3623ZM90.1055 23.6162C90.9869 23.7452 91.8471 23.8857 92.6855 24.0361H92.6865C91.8481 23.8856 90.9879 23.7452 90.1064 23.6162H90.1055ZM67.5605 23.3193H67.5615H67.5605ZM84.5498 22.5781C84.7139 22.6144 84.878 22.6484 85.042 22.6807C85.4668 22.7721 85.8909 22.8606 86.3145 22.9453C85.891 22.8606 85.4668 22.7721 85.042 22.6807C84.878 22.6484 84.7138 22.6144 84.5498 22.5781ZM81.5986 21.707H81.5996H81.5986ZM261.683 20.71H261.684H261.683ZM77.3018 19.3594H77.3008H77.3018ZM82.3975 18.2871V18.2861V18.2871ZM74.6562 15.585C74.7261 15.7703 74.801 15.9526 74.8809 16.1309C74.9609 16.3095 75.0456 16.4847 75.1357 16.6562C74.9556 16.3135 74.796 15.9559 74.6562 15.585ZM66.2764 15.6504C66.2243 15.4849 66.1695 15.32 66.1143 15.1562C66.1695 15.32 66.2243 15.4849 66.2764 15.6504ZM34.4092 14.9082H34.4102C34.4293 14.8603 34.4441 14.8116 34.459 14.7637C34.4441 14.8116 34.4284 14.8602 34.4092 14.9082ZM186.431 14.9082H186.432H186.431ZM65.7686 14.1982C65.8771 14.4806 65.9796 14.766 66.0781 15.0537C65.9796 14.766 65.8771 14.4806 65.7686 14.1982ZM217.79 14.1982C217.879 14.4298 217.965 14.6632 218.047 14.8984C217.965 14.6632 217.879 14.4298 217.79 14.1982ZM34.4727 14.7168C34.4775 14.6997 34.484 14.6831 34.4883 14.666L34.5068 14.5859C34.4981 14.6298 34.485 14.673 34.4727 14.7168ZM65.6865 13.9893C65.6555 13.9107 65.6246 13.8321 65.5928 13.7539C65.6246 13.8321 65.6555 13.9107 65.6865 13.9893ZM217.708 13.9893C217.677 13.9107 217.646 13.8321 217.614 13.7539C217.646 13.8321 217.677 13.9107 217.708 13.9893ZM65.4912 13.5098C65.4573 13.4292 65.4234 13.3487 65.3887 13.2686C65.4234 13.3487 65.4574 13.4292 65.4912 13.5098ZM217.513 13.5098C217.479 13.4292 217.445 13.3487 217.41 13.2686C217.445 13.3487 217.479 13.4292 217.513 13.5098ZM65.3115 13.0928C65.2651 12.9879 65.2178 12.8834 65.1699 12.7793C65.2178 12.8834 65.2651 12.9879 65.3115 13.0928ZM217.333 13.0928C217.287 12.9879 217.239 12.8834 217.191 12.7793C217.239 12.8834 217.287 12.9879 217.333 13.0928ZM65.0742 12.5742C65.0409 12.5035 65.0077 12.4327 64.9736 12.3623C65.0077 12.4327 65.0409 12.5035 65.0742 12.5742ZM217.096 12.5742C217.062 12.5035 217.029 12.4327 216.995 12.3623C217.029 12.4327 217.062 12.5035 217.096 12.5742ZM64.8682 12.1475C64.821 12.0524 64.773 11.9577 64.7246 11.8633C64.773 11.9577 64.821 12.0524 64.8682 12.1475ZM216.89 12.1475C216.842 12.0524 216.795 11.9577 216.746 11.8633C216.795 11.9577 216.842 12.0524 216.89 12.1475ZM73.8828 11.2637C73.8855 11.07 73.8931 10.8778 73.9072 10.6875C73.8931 10.8778 73.8845 11.07 73.8818 11.2637V11.5537H73.8828V11.2637ZM64.6826 11.7812C64.6242 11.6683 64.5642 11.5563 64.5039 11.4443C64.5642 11.5563 64.6242 11.6683 64.6826 11.7812ZM216.704 11.7812C216.646 11.6683 216.586 11.5563 216.525 11.4443C216.586 11.5563 216.646 11.6683 216.704 11.7812ZM64.4268 11.3008C64.367 11.1916 64.3066 11.0828 64.2451 10.9746C64.3066 11.0828 64.367 11.1916 64.4268 11.3008ZM216.448 11.3008C216.382 11.1795 216.315 11.0586 216.246 10.9385C216.315 11.0586 216.382 11.1795 216.448 11.3008ZM64.1826 10.8662C64.1288 10.7725 64.0747 10.6789 64.0195 10.5859C64.0747 10.6789 64.1288 10.7725 64.1826 10.8662ZM216.204 10.8662C216.15 10.7725 216.096 10.6789 216.041 10.5859C216.096 10.6789 216.15 10.7725 216.204 10.8662ZM63.9033 10.3916C63.8593 10.319 63.8143 10.247 63.7695 10.1748C63.8143 10.247 63.8593 10.319 63.9033 10.3916ZM215.925 10.3916C215.881 10.319 215.836 10.247 215.791 10.1748C215.836 10.247 215.881 10.319 215.925 10.3916ZM63.6602 9.99805C63.5984 9.90044 63.5349 9.80385 63.4717 9.70703C63.5349 9.80385 63.5984 9.90044 63.6602 9.99805ZM215.682 9.99805C215.604 9.87597 215.526 9.75462 215.446 9.63379C215.526 9.75462 215.604 9.87597 215.682 9.99805ZM62.8115 8.74609C63.0113 9.02191 63.2045 9.30134 63.3916 9.58398C63.2045 9.30141 63.0113 9.02184 62.8115 8.74609ZM214.833 8.74609C215.03 9.01846 215.221 9.29422 215.406 9.57324C215.221 9.2943 215.03 9.01838 214.833 8.74609ZM74.3506 8.48633H74.3516H74.3506ZM257.59 8.10254H257.591H257.59ZM75.043 6.94141H75.0439H75.043ZM104.71 6.0625C104.942 6.27217 105.162 6.49001 105.369 6.71582C105.162 6.49001 104.943 6.27217 104.71 6.0625ZM190.729 6.15137H190.729H190.729ZM103.201 4.90332H103.2H103.201ZM57.7324 3.72949H57.7334H57.7324ZM209.754 3.72949H209.755H209.754ZM41.5049 3.52246H41.5059H41.5049ZM78.9189 3.27832H78.9199H78.9189ZM252.45 3.06348H252.451H252.45ZM82.1865 1.875H82.1875H82.1865ZM249.215 1.57129H249.216H249.215ZM47.3096 1.23926H47.3105H47.3096ZM199.331 1.23926H199.332H199.331ZM247.836 1.2002H247.837H247.836ZM85.5898 1.2002H85.5908H85.5898Z" fill="black"/>
</svg>
