<svg width="1285" height="180" viewBox="0 0 1285 180" fill="none" xmlns="http://www.w3.org/2000/svg">
<g clip-path="url(#clip0_2327_12)">
<path d="M407.03 101.234V101.196C403.392 96.3187 399.097 92.3707 394.124 89.3323L392.324 88.2679C388.106 85.8682 383.772 83.9522 379.341 82.4814H379.322H379.302L377.445 81.9202C368.157 79.1915 359.005 77.1788 349.988 75.8821H349.853H349.718C349.563 75.8821 349.389 75.8821 349.214 75.8241H349.118L349.021 75.7854C339.791 74.4307 330.852 72.7276 322.203 70.7343H322.184C313.148 68.7603 305.601 65.5284 299.506 61.0579C296.681 58.8324 294.553 56.1423 293.063 52.9685C292.289 51.2074 291.651 49.3495 291.109 47.4336L290.915 46.7175C290.49 45.0532 290.219 43.4469 290.083 41.86V41.7826L290.006 40.9117C290.006 40.6021 289.967 40.2924 289.967 39.9634C289.967 38.8023 290.083 37.6217 290.296 36.4412V36.3832V36.3251C290.509 34.4866 290.954 32.7255 291.612 31.0418C293.102 27.6164 295.385 24.5006 298.5 21.6944C301.654 18.927 305.234 16.624 309.258 14.7661C313.322 12.8889 317.578 11.4375 322.029 10.4311C328.433 9.09578 334.896 8.41843 341.455 8.41843C344.222 8.41843 346.989 8.53455 349.756 8.76678H349.776L351.536 8.90225C360.282 9.67636 368.68 11.7471 376.729 15.1532L378.316 15.8499C381.992 17.5336 385.436 19.585 388.629 22.0428C392.305 24.8102 395.246 28.0228 397.452 31.6611L398.419 33.2674L404.127 30.0935L402.85 28.3324L402.27 27.539C399.29 23.6103 395.827 20.301 391.879 17.611C387.739 14.7081 383.404 12.2696 378.838 10.2763H378.819L377.097 9.56024C368.428 6.0961 359.489 3.87053 350.24 2.86419C345.422 2.28361 340.507 1.97396 335.535 1.8772H333.677C329.323 1.8772 324.989 2.12878 320.636 2.6126C310.419 3.54153 300.667 6.90891 291.418 12.6954V12.7147C286.717 15.7918 282.808 19.914 279.693 25.0618L279.654 25.1199C276.674 30.4032 275.126 36.1316 275.049 42.2471V43.3695C275.049 45.9047 275.3 48.4012 275.804 50.859C276.307 53.6265 277.061 56.3939 278.067 59.1614C280.273 65.0446 283.775 70.0376 288.535 74.121H288.555L288.574 74.1597C293.237 77.8948 298.171 80.7203 303.376 82.5588C308.388 84.5328 313.399 86.0036 318.43 86.9906C324.815 88.3647 331.181 89.5452 337.489 90.5128C340.778 90.9966 343.971 91.5192 347.105 92.0804H347.144C356.548 93.5319 365.429 95.68 373.769 98.5442C377.832 99.957 381.566 101.718 384.991 103.808C388.358 105.956 391.144 108.453 393.427 111.317C395.594 114.239 397.181 117.568 398.168 121.264V121.303L398.361 121.98C398.787 123.567 399.058 125.193 399.193 126.838V126.896V126.954C399.348 128.077 399.426 129.199 399.426 130.321C399.426 131.154 399.387 131.928 399.31 132.663V132.702C399 136.669 398.052 140.54 396.426 144.313V144.352L396.407 144.391C394.956 148.107 392.866 151.551 390.119 154.687C384.391 161.034 377.174 165.698 368.448 168.659C359.779 171.582 350.743 173.11 341.339 173.285H337.992C329.691 173.285 321.545 172.259 313.573 170.207C309.123 168.95 304.847 167.247 300.706 165.06C298.771 163.976 296.855 162.757 294.998 161.441C293.179 160.067 291.592 158.596 290.257 157.028L289.038 155.596L283.892 159.776L285.536 161.286L286.271 161.944C289.987 165.234 293.953 167.904 298.21 169.937L299.913 170.73C303.899 172.53 307.981 174.039 312.161 175.259H312.199C321.7 177.891 331.355 179.361 341.165 179.69C343.042 179.768 344.977 179.806 346.931 179.806C354.884 179.806 362.875 178.994 370.905 177.349C381.237 175.259 390.602 170.633 398.981 163.492H399V163.453C403.121 159.757 406.527 155.422 409.197 150.468C411.867 145.436 413.686 140.114 414.595 134.502V134.463C414.924 132.121 415.098 129.76 415.098 127.419V126.083C415.098 123.045 414.77 120.103 414.073 117.278C412.796 111.549 410.397 106.208 406.875 101.254L407.03 101.234Z" fill="#FF2443"/>
<path d="M1028.16 93.5319L1083.19 93.8996V87.61L1028.16 87.1262V7.66374L1134.21 8.14755V1.72244L1025.99 1.35474H1011.94L1011.83 179.516H1024.29V179.652L1134.33 179.149V172.859L1028.16 173.227V93.5319Z" fill="#FF2443"/>
<path d="M119.714 1.35474H110.058L109.516 1.83856L16.3307 82.5202V1.35474H0.116095L0 179.516H16.3307V105.569L96.4751 179.516H120.565L20.6843 87.281L119.714 1.35474Z" fill="#FF2443"/>
<path d="M636.144 3.03838L583.901 130.786L530.691 2.72874V1.35469H530.13L529.568 0L528.195 1.35469H524.286V179.516H530.691V45.2854L573.433 148.068H583.63L587.036 139.862L636.144 19.8946V179.516H652.474V1.35469H636.144V3.03838Z" fill="#FF2443"/>
<path d="M1178.81 173.227V1.35474H1162.5V179.516H1176.76L1285 179.149V172.743L1178.81 173.227Z" fill="#FF2443"/>
<path d="M976.303 46.6595C971.098 32.261 962.313 20.5139 949.988 11.4181H949.949L949.91 11.3794C943.661 7.12179 936.908 4.21888 929.652 2.63195L928.297 2.36101C925.163 1.78043 921.97 1.45143 918.778 1.37402H853.435V179.535H886.329C889.618 179.555 892.946 179.594 896.333 179.652H899.699C902.931 179.671 905.833 179.71 908.406 179.768H909.664C910.051 179.806 910.438 179.845 910.806 179.884H910.825H910.844L911.676 179.942C912.489 179.981 913.321 180.019 914.153 180.019C915.74 180.019 917.384 179.942 919.049 179.768C922.725 179.439 926.362 178.723 929.961 177.639H929.981H930C937.082 175.317 943.525 171.814 949.349 167.15H949.369C960.901 157.648 969.531 145.939 975.2 132.024C978.064 125.29 980.173 118.323 981.469 111.104C982.785 104.331 983.462 97.5379 983.559 90.7063V89.3323V87.997C983.559 73.9856 981.14 60.2064 976.303 46.6982V46.6595ZM967.344 90.9773C967.344 103.286 965.487 115.304 961.752 127.031C957.902 139.32 951.478 150.061 942.519 159.273C938.011 163.782 932.864 167.266 927.04 169.743C924.195 170.982 921.254 171.852 918.178 172.394C916.088 172.704 913.979 172.898 911.812 172.975C910.651 172.975 909.509 173.014 908.348 173.091C895.481 173.865 882.633 174.291 869.766 174.407V6.63797C872.494 6.57992 875.203 6.56056 877.873 6.56056C881.24 6.56056 884.607 6.59927 887.993 6.67668L893.062 6.81215C898.132 6.98632 903.201 7.21856 908.31 7.50885C908.987 7.58626 909.664 7.62496 910.361 7.64432C916.398 7.79914 922.202 8.67001 927.756 10.2182C933.754 12.1535 939.094 15.1919 943.796 19.3334C952.948 28.1002 959.14 38.7055 962.352 51.188L962.952 53.5297C964.326 58.9678 965.351 64.4834 966.048 70.057C966.764 76.4434 967.209 82.9072 967.363 89.4678V90.9966L967.344 90.9773Z" fill="#FF2443"/>
<path d="M250.34 58.1164C247.128 47.8982 242.31 38.5508 235.886 30.0743C229.443 21.4817 221.684 14.534 212.59 9.25072L211.719 8.74754C202.741 3.75453 193.144 1.19997 182.966 1.12256H182.908C172.343 1.37414 162.495 4.19965 153.439 9.61842C144.442 14.9017 136.721 21.8107 130.278 30.2872C127.066 34.4093 124.222 38.8024 121.765 43.4857C120.778 45.3049 119.849 47.1821 119.036 49.0787C118.804 49.6206 118.572 50.1044 118.359 50.5495V50.5882L118.32 50.6463C117.256 53.1234 116.347 55.6006 115.592 58.0777C112.303 68.2573 110.619 78.7078 110.542 89.3711V89.4098L110.581 91.4032C110.832 101.389 112.477 111.143 115.476 120.684L116.095 122.58C119.288 132.044 123.912 140.772 129.93 148.726C136.373 157.319 144.132 164.266 153.226 169.55C162.456 174.872 172.382 177.6 182.966 177.678H183.024C193.511 177.426 203.302 174.581 212.377 169.182C221.374 163.899 229.095 156.99 235.538 148.513C238.75 144.391 241.594 139.979 244.071 135.276C245.058 133.457 245.967 131.599 246.799 129.702C247.031 129.16 247.263 128.677 247.476 128.231V128.193L247.515 128.135C248.463 125.948 249.276 123.742 249.972 121.497L250.263 120.529C253.417 111.066 255.081 101.35 255.274 91.3838V89.3905C255.293 78.7078 253.649 68.2766 250.359 58.0971L250.34 58.1164ZM236.08 116.833V116.871V116.91L235.48 120.336C235.325 120.994 235.151 121.652 234.938 122.31C234.764 122.735 234.648 123.18 234.551 123.626C234.396 124.129 234.261 124.632 234.164 125.135C233.7 126.819 233.158 128.483 232.539 130.089V130.128L232.519 130.167C231.029 134.579 229.172 138.837 226.966 142.94C222.593 151.319 216.634 158.344 209.049 164.053C201.232 169.627 192.563 172.433 182.985 172.53C173.311 172.298 164.681 169.356 157.038 163.744C149.531 158.035 143.571 151.029 139.198 142.727L138.385 141.159C134.38 133.399 131.536 125.309 129.833 116.871V116.833L129.466 115.13C127.84 107.195 126.969 99.2023 126.853 91.1516V89.4292C126.853 80.2173 127.801 71.0634 129.698 62.0063V61.9676V61.9289L130.278 58.5035L130.839 56.5102C130.994 56.0844 131.13 55.6586 131.226 55.2329L131.691 53.8782L131.729 53.7814V53.6846C132.136 52.001 132.639 50.356 133.239 48.7497V48.6723C134.767 44.2599 136.605 40.0022 138.811 35.8995C143.184 27.5391 149.144 20.514 156.729 14.805C164.546 9.23136 173.253 6.36716 182.927 6.21233C192.505 6.54133 201.096 9.5023 208.739 15.1533C216.247 20.8624 222.187 27.8681 226.56 36.1511C230.991 44.376 234.106 52.9879 235.925 62.0063V62.045C237.782 70.5409 238.769 79.0948 238.885 87.7261V89.4485C238.885 98.6605 237.937 107.814 236.041 116.871L236.08 116.833Z" fill="#FF2443"/>
<path d="M820.348 58.1164C817.136 47.8982 812.318 38.5508 805.894 30.0743C799.451 21.4817 791.692 14.534 782.598 9.25072L781.727 8.74754C772.749 3.75453 763.152 1.19997 752.974 1.12256H752.916C742.352 1.37414 732.522 4.19965 723.447 9.61842C714.45 14.9017 706.73 21.8107 700.286 30.2872C697.074 34.4093 694.23 38.8024 691.773 43.4857C690.786 45.3049 689.857 47.1821 689.045 49.0787C688.812 49.6206 688.58 50.1044 688.367 50.5495V50.5882L688.329 50.6463C687.264 53.1234 686.355 55.6006 685.6 58.0777C682.311 68.2573 680.628 78.7078 680.55 89.3711V89.4098L680.589 91.4032C680.84 101.389 682.485 111.143 685.484 120.684L686.103 122.58C689.296 132.044 693.921 140.772 699.938 148.726C706.381 157.319 714.14 164.266 723.235 169.55C732.464 174.872 742.39 177.6 752.974 177.678H753.032C763.52 177.426 773.31 174.581 782.385 169.182C791.382 163.899 799.103 156.99 805.546 148.513C808.758 144.391 811.602 139.979 814.079 135.276C815.066 133.457 815.975 131.599 816.807 129.702C817.04 129.16 817.272 128.677 817.485 128.231V128.193L817.523 128.135C818.471 125.948 819.284 123.742 819.981 121.497L820.271 120.529C823.425 111.066 825.089 101.35 825.282 91.3838V89.3905C825.302 78.7078 823.657 68.2766 820.368 58.0971L820.348 58.1164ZM806.088 116.833V116.871V116.91L805.488 120.336C805.333 120.994 805.159 121.652 804.946 122.31C804.772 122.735 804.656 123.18 804.559 123.626C804.404 124.129 804.269 124.632 804.172 125.135C803.708 126.819 803.166 128.483 802.547 130.089V130.128L802.528 130.167C801.038 134.579 799.18 138.837 796.974 142.94C792.602 151.319 786.642 158.344 779.057 164.053C771.24 169.627 762.572 172.433 752.994 172.53C743.319 172.298 734.689 169.356 727.027 163.724C719.52 158.015 713.579 151.01 709.206 142.727L708.394 141.159C704.388 133.399 701.544 125.309 699.841 116.871V116.833L699.474 115.13C697.848 107.195 696.978 99.2023 696.862 91.1516V89.4292C696.862 80.2173 697.81 71.0634 699.706 62.0063V61.9676V61.9289L700.286 58.5035L700.848 56.5102C701.002 56.0844 701.138 55.6586 701.235 55.2135L701.68 53.8588L701.718 53.7621V53.6653C702.125 51.9816 702.628 50.3366 703.228 48.7303V48.6529C704.756 44.2405 706.594 39.9829 708.8 35.8801C713.173 27.5197 719.152 20.4753 726.737 14.7663C734.554 9.21201 743.261 6.3478 752.916 6.19298C762.494 6.52198 771.085 9.48295 778.728 15.134C786.236 20.843 792.176 27.8487 796.549 36.1317C800.98 44.3566 804.095 52.9686 805.914 61.987V62.0257L806.281 63.7287C807.907 71.6634 808.777 79.656 808.893 87.7068V89.4292C808.893 98.6411 807.945 107.795 806.049 116.852L806.088 116.833Z" fill="#FF2443"/>
</g>
<defs>
<clipPath id="clip0_2327_12">
<rect width="1285" height="180" fill="white"/>
</clipPath>
</defs>
</svg>
